HIERARCHY
ROOT Root
{
  OFFSET 0.0 0.0 0.0
  CHANNELS 6 Xposition Yposition Zposition Zrotation Yrotation Xrotation
  JOINT Hips
  {
    OFFSET 0.0 100.0 0.0
    CHANNELS 6 Xposition Yposition Zposition Zrotation Yrotation Xrotation
    JOINT Spine1
    {
      OFFSET 5.003913 -0.037094 -0.013727
      CHANNELS 3 Zrotation Yrotation Xrotation
      JOINT Spine2
      {
        OFFSET 7.125363 -1e-06 0.0
        CHANNELS 3 Zrotation Yrotation Xrotation
        JOINT Chest
        {
          OFFSET 7.594027 1e-06 0.0
          CHANNELS 3 Zrotation Yrotation Xrotation
          JOINT Neck1
          {
            OFFSET 26.313086 -0.460272 -0.181672
            CHANNELS 3 Zrotation Yrotation Xrotation
            JOINT Neck2
            {
              OFFSET 8.045911 0.0 0.0
              CHANNELS 3 Zrotation Yrotation Xrotation
              JOINT Head
              {
                OFFSET 6.432774 0.0 0.0
                CHANNELS 3 Zrotation Yrotation Xrotation
                JOINT HeadEnd
                {
                  OFFSET 16.169773 0.06451 0.00362
                  CHANNELS 3 Zrotation Yrotation Xrotation
                }
                JOINT Jaw
                {
                  OFFSET 0.108741 3.12938 0.002639
                  CHANNELS 3 Zrotation Yrotation Xrotation
                }
                JOINT LeftEye
                {
                  OFFSET 4.45173 8.166359 3.206392
                  CHANNELS 3 Zrotation Yrotation Xrotation
                }
                JOINT RightEye
                {
                  OFFSET 4.436895 8.135758 -3.222429
                  CHANNELS 3 Zrotation Yrotation Xrotation
                }
              }
            }
          }
          JOINT LeftShoulder
          {
            OFFSET 23.218927 5.195579 1.621656
            CHANNELS 3 Zrotation Yrotation Xrotation
            JOINT LeftArm
            {
              OFFSET 15.902118 2e-06 -2e-06
              CHANNELS 3 Zrotation Yrotation Xrotation
              JOINT LeftForeArm
              {
                OFFSET 28.739307 0.0 -1e-06
                CHANNELS 3 Zrotation Yrotation Xrotation
                JOINT LeftHand
                {
                  OFFSET 27.093981 -4e-06 0.0
                  CHANNELS 3 Zrotation Yrotation Xrotation
                  JOINT LeftHandThumb1
                  {
                    OFFSET 2.276781 3.380274 0.83384
                    CHANNELS 3 Zrotation Yrotation Xrotation
                    JOINT LeftHandThumb2
                    {
                      OFFSET 4.705309 -1e-06 -1e-06
                      CHANNELS 3 Zrotation Yrotation Xrotation
                      JOINT LeftHandThumb3
                      {
                        OFFSET 2.798515 0.0 3e-06
                        CHANNELS 3 Zrotation Yrotation Xrotation
                        JOINT LeftHandThumbEnd
                        {
                          OFFSET 3.180793 4e-06 -4e-06
                          CHANNELS 3 Zrotation Yrotation Xrotation
                        }
                      }
                    }
                  }
                  JOINT LeftHandIndex1
                  {
                    OFFSET 3.247786 2.352677 0.137192
                    CHANNELS 3 Zrotation Yrotation Xrotation
                    JOINT LeftHandIndex2
                    {
                      OFFSET 6.367095 1e-06 0.0
                      CHANNELS 3 Zrotation Yrotation Xrotation
                      JOINT LeftHandIndex3
                      {
                        OFFSET 3.662364 0.0 0.0
                        CHANNELS 3 Zrotation Yrotation Xrotation
                        JOINT LeftHandIndex4
                        {
                          OFFSET 2.329242 4e-06 -4e-06
                          CHANNELS 3 Zrotation Yrotation Xrotation
                          JOINT LeftHandIndexEnd
                          {
                            OFFSET 2.767823 1e-06 0.0
                            CHANNELS 3 Zrotation Yrotation Xrotation
                          }
                        }
                      }
                    }
                  }
                  JOINT LeftHandMiddle1
                  {
                    OFFSET 3.163612 0.945023 -0.406112
                    CHANNELS 3 Zrotation Yrotation Xrotation
                    JOINT LeftHandMiddle2
                    {
                      OFFSET 6.276789 3e-06 0.0
                      CHANNELS 3 Zrotation Yrotation Xrotation
                      JOINT LeftHandMiddle3
                      {
                        OFFSET 4.35652 -1e-06 4e-06
                        CHANNELS 3 Zrotation Yrotation Xrotation
                        JOINT LeftHandMiddle4
                        {
                          OFFSET 2.996877 0.0 8e-06
                          CHANNELS 3 Zrotation Yrotation Xrotation
                          JOINT LeftHandMiddleEnd
                          {
                            OFFSET 2.323256 3e-06 -4e-06
                            CHANNELS 3 Zrotation Yrotation Xrotation
                          }
                        }
                      }
                    }
                  }
                  JOINT LeftHandRing1
                  {
                    OFFSET 2.882606 -0.309162 0.107445
                    CHANNELS 3 Zrotation Yrotation Xrotation
                    JOINT LeftHandRing2
                    {
                      OFFSET 6.033198 0.0 4e-06
                      CHANNELS 3 Zrotation Yrotation Xrotation
                      JOINT LeftHandRing3
                      {
                        OFFSET 4.350578 3e-06 0.0
                        CHANNELS 3 Zrotation Yrotation Xrotation
                        JOINT LeftHandRing4
                        {
                          OFFSET 2.651321 2e-06 -7e-06
                          CHANNELS 3 Zrotation Yrotation Xrotation
                          JOINT LeftHandRingEnd
                          {
                            OFFSET 1.937663 1e-06 -4e-06
                            CHANNELS 3 Zrotation Yrotation Xrotation
                          }
                        }
                      }
                    }
                  }
                  JOINT LeftHandPinky1
                  {
                    OFFSET 2.865315 -1.525436 0.575687
                    CHANNELS 3 Zrotation Yrotation Xrotation
                    JOINT LeftHandPinky2
                    {
                      OFFSET 5.54936 1e-06 -8e-06
                      CHANNELS 3 Zrotation Yrotation Xrotation
                      JOINT LeftHandPinky3
                      {
                        OFFSET 3.070974 0.0 -4e-06
                        CHANNELS 3 Zrotation Yrotation Xrotation
                        JOINT LeftHandPinky4
                        {
                          OFFSET 1.549672 1e-06 0.0
                          CHANNELS 3 Zrotation Yrotation Xrotation
                          JOINT LeftHandPinkyEnd
                          {
                            OFFSET 1.952123 0.0 0.0
                            CHANNELS 3 Zrotation Yrotation Xrotation
                          }
                        }
                      }
                    }
                  }
                }
              }
            }
          }
          JOINT RightShoulder
          {
            OFFSET 23.161716 5.296122 -1.380114
            CHANNELS 3 Zrotation Yrotation Xrotation
            JOINT RightArm
            {
              OFFSET -16.027195 -2e-06 1.1e-05
              CHANNELS 3 Zrotation Yrotation Xrotation
              JOINT RightForeArm
              {
                OFFSET -28.736639 4e-06 2e-06
                CHANNELS 3 Zrotation Yrotation Xrotation
                JOINT RightHand
                {
                  OFFSET -27.133619 6e-06 0.0
                  CHANNELS 3 Zrotation Yrotation Xrotation
                  JOINT RightHandThumb1
                  {
                    OFFSET -2.274328 -3.351035 -0.83067
                    CHANNELS 3 Zrotation Yrotation Xrotation
                    JOINT RightHandThumb2
                    {
                      OFFSET -4.703594 -3e-06 2e-06
                      CHANNELS 3 Zrotation Yrotation Xrotation
                      JOINT RightHandThumb3
                      {
                        OFFSET -2.794935 -4e-06 -3e-06
                        CHANNELS 3 Zrotation Yrotation Xrotation
                        JOINT RightHandThumbEnd
                        {
                          OFFSET -3.183852 4e-06 1e-06
                          CHANNELS 3 Zrotation Yrotation Xrotation
                        }
                      }
                    }
                  }
                  JOINT RightHandIndex1
                  {
                    OFFSET -3.253496 -2.33755 -0.127667
                    CHANNELS 3 Zrotation Yrotation Xrotation
                    JOINT RightHandIndex2
                    {
                      OFFSET -6.344434 0.0 0.0
                      CHANNELS 3 Zrotation Yrotation Xrotation
                      JOINT RightHandIndex3
                      {
                        OFFSET -3.654871 0.0 -8e-06
                        CHANNELS 3 Zrotation Yrotation Xrotation
                        JOINT RightHandIndex4
                        {
                          OFFSET -2.327586 -1e-06 0.0
                          CHANNELS 3 Zrotation Yrotation Xrotation
                          JOINT RightHandIndexEnd
                          {
                            OFFSET -2.770001 3e-06 8e-06
                            CHANNELS 3 Zrotation Yrotation Xrotation
                          }
                        }
                      }
                    }
                  }
                  JOINT RightHandMiddle1
                  {
                    OFFSET -3.168223 -0.944764 0.411762
                    CHANNELS 3 Zrotation Yrotation Xrotation
                    JOINT RightHandMiddle2
                    {
                      OFFSET -6.266691 -1e-06 -4e-06
                      CHANNELS 3 Zrotation Yrotation Xrotation
                      JOINT RightHandMiddle3
                      {
                        OFFSET -4.348901 0.0 0.0
                        CHANNELS 3 Zrotation Yrotation Xrotation
                        JOINT RightHandMiddle4
                        {
                          OFFSET -3.00024 2e-06 -4e-06
                          CHANNELS 3 Zrotation Yrotation Xrotation
                          JOINT RightHandMiddleEnd
                          {
                            OFFSET -2.321477 -4e-06 -4e-06
                            CHANNELS 3 Zrotation Yrotation Xrotation
                          }
                        }
                      }
                    }
                  }
                  JOINT RightHandRing1
                  {
                    OFFSET -2.885654 0.293261 -0.119232
                    CHANNELS 3 Zrotation Yrotation Xrotation
                    JOINT RightHandRing2
                    {
                      OFFSET -6.032835 -1e-06 -4e-06
                      CHANNELS 3 Zrotation Yrotation Xrotation
                      JOINT RightHandRing3
                      {
                        OFFSET -4.33881 0.0 -4e-06
                        CHANNELS 3 Zrotation Yrotation Xrotation
                        JOINT RightHandRing4
                        {
                          OFFSET -2.654903 -4e-06 -4e-06
                          CHANNELS 3 Zrotation Yrotation Xrotation
                          JOINT RightHandRingEnd
                          {
                            OFFSET -1.935122 0.0 4e-06
                            CHANNELS 3 Zrotation Yrotation Xrotation
                          }
                        }
                      }
                    }
                  }
                  JOINT RightHandPinky1
                  {
                    OFFSET -2.866241 1.503904 -0.60527
                    CHANNELS 3 Zrotation Yrotation Xrotation
                    JOINT RightHandPinky2
                    {
                      OFFSET -5.553177 -2e-06 0.0
                      CHANNELS 3 Zrotation Yrotation Xrotation
                      JOINT RightHandPinky3
                      {
                        OFFSET -3.062664 -1e-06 -4e-06
                        CHANNELS 3 Zrotation Yrotation Xrotation
                        JOINT RightHandPinky4
                        {
                          OFFSET -1.546529 2e-06 4e-06
                          CHANNELS 3 Zrotation Yrotation Xrotation
                          JOINT RightHandPinkyEnd
                          {
                            OFFSET -1.952341 0.0 -4e-06
                            CHANNELS 3 Zrotation Yrotation Xrotation
                          }
                        }
                      }
                    }
                  }
                }
              }
            }
          }
        }
      }
    }
    JOINT LeftLeg
    {
      OFFSET -8.443107 2.567604 10.043214
      CHANNELS 3 Zrotation Yrotation Xrotation
      JOINT LeftShin
      {
        OFFSET 43.229198 1e-06 -1e-06
        CHANNELS 3 Zrotation Yrotation Xrotation
        JOINT LeftFoot
        {
          OFFSET 42.298611 1e-06 1e-06
          CHANNELS 3 Zrotation Yrotation Xrotation
          JOINT LeftToeBase
          {
            OFFSET 14.165858 1e-06 0.0
            CHANNELS 3 Zrotation Yrotation Xrotation
            JOINT LeftToeEnd
            {
              OFFSET 6.7141 -0.234461 0.0
              CHANNELS 3 Zrotation Yrotation Xrotation
            }
          }
        }
      }
    }
    JOINT RightLeg
    {
      OFFSET -8.303923 2.592729 -10.047278
      CHANNELS 3 Zrotation Yrotation Xrotation
      JOINT RightShin
      {
        OFFSET -43.369682 0.0 1e-06
        CHANNELS 3 Zrotation Yrotation Xrotation
        JOINT RightFoot
        {
          OFFSET -42.260784 4e-06 2e-06
          CHANNELS 3 Zrotation Yrotation Xrotation
          JOINT RightToeBase
          {
            OFFSET -14.222245 -2e-06 -1e-06
            CHANNELS 3 Zrotation Yrotation Xrotation
            JOINT RightToeEnd
            {
              OFFSET -6.660062 0.232574 -2e-06
              CHANNELS 3 Zrotation Yrotation Xrotation
            }
          }
        }
      }
    }
  }
}
MOTION
Frames: 4
Frame Time: 0.03333333333333333
0.0 0.0 0.0 0.0 -0.0 0.0 -2.723749 49.399609 5.328616 92.800423 -60.561916 90.409424 11.82325 -1.149076 0.074414 -4.767553 -0.889863 0.364607 20.530298 -1.688139 -2.414348 30.480021 1.905606 3.716819 -2.923045 -0.156102 -0.062279 -29.444412 0.752641 -1.710017 6e-06 0.0 0.0 -0.209586 0.002867 0.018242 -0.277113 0.014171 0.021311 -0.265141 -0.001846 0.00477 -31.282236 -62.112301 31.307873 98.19294 -1.267834 -36.119743 8.818947 -0.947412 -0.141113 47.257385 76.814102 51.142204 17.636627 -26.322725 52.411194 -19.466663 -14.395597 29.410389 -1e-06 -8.774822 -2e-06 15.465874 -18.073368 6.677888 -0.609776 -1.795654 -3.889327 -4.807087 -11.046809 -2.93785 4e-06 -20.976019 -1e-06 -5.019969 -25.033554 -4.03188 6e-06 -0.0 -1e-06 -10.634535 -5.68697 -3.565587 10.573274 -17.922953 -3.113902 3e-06 -13.821209 -0.0 -0.501775 -31.181501 -4.027017 -10.702666 -58.299797 6.535789 -13.982712 -7.150198 -2.875042 13.772729 -8.401492 -3.218243 0.347735 -34.211555 0.771653 -0.963027 -17.73337 2.621019 0.0 0.0 -0.0 -17.346416 -20.095217 -4.201783 21.757555 -1.638375 3.866427 2e-06 -6.338823 0.0 -1.697588 -22.591743 -6.194007 -1e-06 -7e-06 -2e-06 140.064789 -60.629608 39.385307 95.030212 -0.275526 -31.95491 10.396152 -1.266188 -0.244722 23.030249 69.633423 25.796478 22.182114 -20.375895 49.933319 -16.701809 -16.74353 28.476528 -3e-06 -12.6906 -1e-06 16.295187 -16.979774 2.631798 -0.10592 -1.513855 -4.275882 -5.039041 -5.612872 -2.953557 4e-06 -11.020521 -1e-06 -6.111298 -15.89533 -3.84047 -0.0 -2e-06 -0.0 -10.283371 -5.680287 -4.341838 11.028295 -11.302407 -2.372633 -1.384269 -14.238579 -6.320121 -0.62544 -26.924191 -3.8276 -4.441921 -49.271713 -3.441948 -13.708524 -7.363477 -3.72094 18.141148 -14.052739 -3.242674 6e-06 -18.787271 -2e-06 -0.429712 -8.45604 2.555504 -0.0 0.0 0.0 -15.923536 -20.094482 -5.473585 30.41921 -7.190827 1.735927 3e-06 -8.162927 -1e-06 -1.861902 -22.861469 -6.167942 -1e-06 -2e-06 -1e-06 111.857948 -2.705319 6.669564 111.708229 0.190276 0.290792 -57.91441 17.357328 -4.53952 -14.483108 1.698211 1.974395 -0.999998 0.0 -0.0 -57.883259 -8.573959 1.800703 103.855034 -0.935718 0.000672 -58.588013 5.985625 -9.605756 -12.181561 0.636579 1.979565 -1.000002 0.0 -0.0 
0.0 0.0 0.0 0.0 -0.0 0.0 -2.612732 49.375072 5.226885 92.51152 -60.670589 90.643921 11.7372 -1.058103 0.121301 -4.846265 -0.827807 0.394564 20.581758 -1.687513 -2.304992 30.573263 1.913933 3.610936 -2.910478 -0.20656 -0.043415 -29.365404 0.773354 -1.773891 6e-06 0.0 0.0 -0.211733 -0.023486 0.015414 -0.253812 -0.013731 0.024102 -0.243579 -0.024876 -0.005367 -31.19511 -62.193989 31.538549 98.393318 -1.025493 -36.613846 8.694439 -0.856692 -0.128632 50.038811 76.268562 53.735119 17.636625 -26.322729 52.411194 -19.466656 -14.395596 29.410385 -2e-06 -8.774818 -2e-06 15.434114 -18.151497 6.709786 -0.609776 -1.795653 -3.889327 -4.807087 -11.046805 -2.937849 3e-06 -20.976011 1e-06 -5.019969 -25.033552 -4.03188 6e-06 1e-06 -1e-06 -10.634533 -5.686968 -3.565587 10.573272 -17.922947 -3.113899 2e-06 -13.821205 2e-06 -0.501778 -31.181498 -4.027014 -10.703359 -58.462868 6.566718 -13.982711 -7.150195 -2.875042 13.772727 -8.401489 -3.218241 0.347732 -34.211536 0.771657 -0.963029 -17.733362 2.62102 -0.0 -1e-06 -1e-06 -17.346413 -20.095211 -4.201781 21.757555 -1.638374 3.866426 1e-06 -6.338821 1e-06 -1.69759 -22.591742 -6.194003 -1e-06 -7e-06 -3e-06 139.966263 -60.498318 39.682503 95.081627 0.006016 -31.940153 10.110012 -1.153103 -0.233144 23.194805 69.408989 25.692787 22.182106 -20.375895 49.933308 -16.701807 -16.743525 28.476522 -1e-06 -12.690597 -0.0 16.219484 -16.977152 2.706143 -0.105919 -1.513859 -4.275879 -5.039038 -5.612868 -2.953556 4e-06 -11.020523 -1e-06 -6.111295 -15.895329 -3.840469 1e-06 -2e-06 -0.0 -10.283365 -5.680289 -4.341837 11.02829 -11.302405 -2.372632 -1.384268 -14.238575 -6.32012 -0.625438 -26.924181 -3.8276 -4.503739 -49.432625 -3.350984 -13.708519 -7.363475 -3.720938 18.141142 -14.052735 -3.242673 5e-06 -18.78727 -2e-06 -0.429712 -8.456039 2.555503 -0.0 0.0 0.0 -15.92353 -20.094482 -5.473581 30.419197 -7.190823 1.735923 2e-06 -8.162922 -1e-06 -1.861902 -22.861465 -6.167939 -0.0 -2e-06 -1e-06 111.550987 -2.702799 6.725432 111.875702 0.189719 0.307544 -57.657391 17.328751 -4.344974 -14.351445 1.730149 1.959549 -0.999996 -0.0 -0.0 -58.117863 -8.525585 1.795868 103.919044 -0.935668 -0.005246 -58.262299 5.81848 -9.539634 -12.1135 0.626067 1.987725 -1.000003 -0.0 -0.0 
0.0 0.0 0.0 0.0 -0.0 0.0 -2.497591 49.342167 5.09422 92.388237 -60.74926 90.781792 11.63881 -0.985195 0.167964 -4.908816 -0.776287 0.4412 20.641319 -1.698561 -2.265897 30.726501 1.965449 3.514435 -2.892894 -0.237724 -0.007375 -29.371956 0.745012 -1.806547 6e-06 0.0 0.0 -0.208951 -0.04716 0.015649 -0.282898 -0.0399 0.019339 -0.262516 -0.045427 -0.003067 -30.868832 -62.180336 31.433107 98.434532 -0.898458 -36.889503 8.721425 -0.796794 -0.116365 51.311573 75.912926 54.732834 17.636625 -26.322733 52.411205 -19.466661 -14.395598 29.410395 -3e-06 -8.774821 -1e-06 15.456122 -18.183327 6.667559 -0.609778 -1.795655 -3.889328 -4.807088 -11.046809 -2.93785 4e-06 -20.976015 -1e-06 -5.019969 -25.033554 -4.03188 6e-06 -0.0 0.0 -10.634533 -5.68697 -3.565587 10.573275 -17.922953 -3.113902 3e-06 -13.821208 1e-06 -0.501777 -31.181505 -4.027016 -10.635315 -58.533703 6.527185 -13.982714 -7.150198 -2.875042 13.772731 -8.401492 -3.218241 0.347735 -34.211552 0.771655 -0.963028 -17.733368 2.62102 -0.0 0.0 -0.0 -17.346416 -20.095217 -4.201783 21.757557 -1.638376 3.866427 1e-06 -6.338824 1e-06 -1.697588 -22.591743 -6.194006 -0.0 -6e-06 -3e-06 140.10466 -60.373272 39.740166 94.926521 0.22649 -31.858953 10.006602 -1.084139 -0.228233 23.180658 69.294983 25.786192 22.182116 -20.375895 49.933315 -16.701807 -16.74353 28.476522 -2e-06 -12.690599 -0.0 16.17697 -16.908457 2.760803 -0.10592 -1.513855 -4.275881 -5.03904 -5.612872 -2.953557 4e-06 -11.020525 -2e-06 -6.111297 -15.895328 -3.84047 0.0 -2e-06 0.0 -10.283369 -5.680288 -4.341838 11.028293 -11.302404 -2.372632 -1.384269 -14.238579 -6.320121 -0.625439 -26.924187 -3.827601 -4.489874 -49.463451 -3.288115 -13.708524 -7.363475 -3.720939 18.141148 -14.052738 -3.242674 6e-06 -18.78727 -2e-06 -0.429711 -8.456038 2.555504 -0.0 0.0 0.0 -15.923534 -20.094482 -5.473584 30.41921 -7.190823 1.735926 3e-06 -8.162925 -0.0 -1.861901 -22.861467 -6.167941 -0.0 -3e-06 -1e-06 111.266312 -2.636343 6.722822 112.124825 0.209722 0.323849 -57.752209 17.075087 -4.281115 -14.489325 1.748205 1.955714 -0.999998 -0.0 0.0 -58.354828 -8.545978 1.915693 104.077049 -0.906783 0.004241 -58.137314 5.797936 -9.592893 -12.282688 0.622705 1.994255 -1.000001 -0.0 -0.0 
0.0 0.0 0.0 0.0 -0.0 0.0 -2.432409 49.308659 4.905785 92.263313 -60.851978 90.975105 11.553325 -0.921666 0.198894 -4.958044 -0.748676 0.467954 20.652081 -1.648235 -2.282427 30.841887 2.011926 3.440935 -2.876498 -0.263304 0.008973 -29.39163 0.732688 -1.777165 6e-06 0.0 -0.0 -0.20809 -0.063035 0.016077 -0.335871 -0.055026 0.01049 -0.30255 -0.062966 0.004817 -30.647667 -62.156376 31.378019 98.408257 -0.845121 -37.2001 8.869875 -0.747235 -0.114638 52.746868 75.607475 56.20694 17.636631 -26.322729 52.411179 -19.466658 -14.395596 29.410378 -1e-06 -8.774821 -2e-06 15.468936 -18.17384 6.640699 -0.609777 -1.795654 -3.889326 -4.807087 -11.046811 -2.93785 3e-06 -20.976019 1e-06 -5.019972 -25.03356 -4.03188 6e-06 -0.0 1e-06 -10.634533 -5.686971 -3.565587 10.573272 -17.922951 -3.1139 2e-06 -13.821211 2e-06 -0.501777 -31.181505 -4.027016 -10.576417 -58.55957 6.459261 -13.982712 -7.150198 -2.875042 13.772727 -8.401493 -3.218241 0.347733 -34.211555 0.771655 -0.963028 -17.73337 2.621019 0.0 0.0 0.0 -17.346418 -20.095217 -4.201779 21.757555 -1.638375 3.866428 1e-06 -6.338824 1e-06 -1.697588 -22.591742 -6.194007 -0.0 -5e-06 -2e-06 140.230728 -60.220165 39.690842 94.769333 0.281711 -31.752745 10.09846 -1.0025 -0.226967 22.870754 69.248764 25.761333 22.182117 -20.375898 49.933319 -16.701817 -16.74353 28.47653 -3e-06 -12.690601 -1e-06 16.195606 -16.864468 2.801589 -0.105919 -1.513857 -4.275882 -5.039041 -5.612872 -2.953557 4e-06 -11.020525 -2e-06 -6.111297 -15.895334 -3.84047 0.0 -1e-06 0.0 -10.28337 -5.680287 -4.341839 11.028296 -11.302407 -2.372633 -1.384269 -14.238579 -6.320121 -0.625439 -26.924192 -3.8276 -4.469408 -49.518875 -3.221264 -13.708524 -7.363477 -3.720939 18.14115 -14.052739 -3.242675 6e-06 -18.787271 -2e-06 -0.429712 -8.456043 2.555504 -0.0 1e-06 0.0 -15.923534 -20.094482 -5.473585 30.419214 -7.190825 1.735925 3e-06 -8.162925 -1e-06 -1.861903 -22.861467 -6.167942 -0.0 -3e-06 -1e-06 110.880402 -2.546468 6.816648 112.466026 0.244147 0.33663 -58.088886 16.88319 -4.300237 -14.83185 1.753208 1.958399 -0.999999 -0.0 0.0 -58.664673 -8.561308 2.034084 104.360229 -0.843949 0.009075 -58.29118 5.780234 -9.74625 -12.55532 0.624973 2.001971 -1.000004 0.0 -0.0 
